<svg width="188" height="38" viewBox="0 0 188 38" fill="none" xmlns="http://www.w3.org/2000/svg">
<path d="M1 19C1 9.05888 9.05888 1 19 1H169C178.941 1 187 9.05888 187 19C187 28.9411 178.941 37 169 37H19C9.05888 37 1 28.9411 1 19Z" stroke="#002DFF" stroke-width="2"/>
<path d="M55.6787 21.124C55.6787 18.8389 53.9385 17.2656 51.46 17.2656H48.6475V14.0137H54.4482V12.3174H46.6787V25H51.5039C53.9648 25 55.6787 23.4268 55.6787 21.124ZM48.6475 23.3301V18.9092H50.9941C52.6904 18.9092 53.666 19.7002 53.666 21.124C53.666 22.5391 52.6992 23.3301 51.0029 23.3301H48.6475ZM58.4101 28.4629C60.3613 28.4629 61.2665 27.7334 62.0839 25.4395L65.6523 15.4551H63.6484L61.2577 23.1016H61.1083L58.7089 15.4551H56.6523L60.1152 25.0264L59.9745 25.5186C59.6494 26.5293 59.1396 26.9072 58.2431 26.9072C58.0673 26.9072 57.7773 26.8984 57.6279 26.8721V28.4189C57.8036 28.4453 58.2519 28.4629 58.4101 28.4629ZM67.7333 27.5049V25H74.8436V27.5049H76.5926V23.4883H75.0985V15.4551H68.2079L67.8563 20.5967C67.7684 21.8799 67.452 23.0488 66.7489 23.4883H65.9755V27.5049H67.7333ZM73.2176 23.4883H68.8407V23.3389C69.2714 22.7412 69.4999 21.7744 69.5878 20.6758L69.8514 16.958H73.2176V23.4883ZM79.0604 28.4629C81.0115 28.4629 81.9168 27.7334 82.7342 25.4395L86.3025 15.4551H84.2986L81.908 23.1016H81.7586L79.3592 15.4551H77.3025L80.7654 25.0264L80.6248 25.5186C80.2996 26.5293 79.7899 26.9072 78.8934 26.9072C78.7176 26.9072 78.4275 26.8984 78.2781 26.8721V28.4189C78.4539 28.4453 78.9022 28.4629 79.0604 28.4629ZM100.765 18.5225C100.519 16.668 99.069 15.2705 96.6696 15.2705C93.8835 15.2705 92.1872 17.1602 92.1872 20.1924C92.1872 23.2861 93.8923 25.1846 96.6784 25.1846C99.0427 25.1846 100.519 23.8574 100.765 21.9766H98.9284C98.6823 23.0137 97.8649 23.5762 96.6696 23.5762C95.0964 23.5762 94.1208 22.3018 94.1208 20.1924C94.1208 18.127 95.0876 16.8789 96.6696 16.8789C97.9352 16.8789 98.7087 17.5908 98.9284 18.5225H100.765ZM104.595 25V18.3643H104.762L107.566 24.6396H108.955L111.758 18.3643H111.925V25H113.771V15.4551H111.46L108.366 22.4248H108.216L105.131 15.4551H102.758V25H104.595ZM120.396 25.1846C123.191 25.1846 124.905 23.3125 124.905 20.2275C124.905 17.1426 123.182 15.2705 120.396 15.2705C117.601 15.2705 115.878 17.1514 115.878 20.2275C115.878 23.3125 117.592 25.1846 120.396 25.1846ZM120.396 23.5762C118.752 23.5762 117.83 22.3545 117.83 20.2275C117.83 18.1006 118.752 16.8701 120.396 16.8701C122.031 16.8701 122.962 18.1006 122.962 20.2275C122.962 22.3457 122.031 23.5762 120.396 23.5762ZM133.569 15.4551H125.65V16.9668H128.665V25H130.554V16.9668H133.569V15.4551ZM140.334 15.2881C139.034 15.2881 137.909 15.9473 137.329 17.0371H137.188V15.4551H135.369V28.1816H137.258V23.5586H137.408C137.909 24.5693 138.99 25.1582 140.352 25.1582C142.769 25.1582 144.307 23.2422 144.307 20.2275C144.307 17.1953 142.769 15.2881 140.334 15.2881ZM139.798 23.541C138.216 23.541 137.223 22.2666 137.223 20.2275C137.223 18.1797 138.216 16.9053 139.807 16.9053C141.407 16.9053 142.365 18.1533 142.365 20.2275C142.365 22.3018 141.407 23.541 139.798 23.541ZM152.699 22.4424C152.347 23.2158 151.565 23.6377 150.422 23.6377C148.911 23.6377 147.935 22.5479 147.873 20.8164V20.7285H154.632V20.0781C154.632 17.0898 153.024 15.2705 150.361 15.2705C147.662 15.2705 145.949 17.2129 145.949 20.2451C145.949 23.2949 147.627 25.1846 150.369 25.1846C152.558 25.1846 154.105 24.1299 154.518 22.4424H152.699ZM150.352 16.8086C151.749 16.8086 152.663 17.8193 152.707 19.3662H147.873C147.979 17.8281 148.954 16.8086 150.352 16.8086ZM163.27 15.4551H155.351V16.9668H158.366V25H160.255V16.9668H163.27V15.4551ZM165.061 25H168.84C171.055 25 172.47 23.7256 172.47 21.7041C172.47 19.6914 171.055 18.417 168.84 18.417H166.95V15.4551H165.061V25ZM168.699 19.9199C169.842 19.9199 170.589 20.623 170.589 21.7041C170.589 22.7764 169.851 23.4883 168.699 23.4883H166.95V19.9199H168.699Z" fill="#002DFF"/>
<path d="M21.3333 8H23.6667V29H21.3333V8Z" fill="#002DFF"/>
<path d="M33 17.3333V19.6667L12 19.6667L12 17.3333H33Z" fill="#002DFF"/>
</svg>
