<svg width="155" height="38" viewBox="0 0 155 38" fill="none" xmlns="http://www.w3.org/2000/svg">
<path d="M1 19C1 9.05888 9.05888 1 19 1H136C145.941 1 154 9.05888 154 19C154 28.9411 145.941 37 136 37H19C9.05888 37 1 28.9411 1 19Z" stroke="#002DFF" stroke-width="2"/>
<path d="M51.8818 25.3076C54.7119 25.3076 56.7949 23.6816 57.1465 21.2119H55.1865C54.835 22.6533 53.5605 23.5586 51.8818 23.5586C49.5967 23.5586 48.1729 21.6777 48.1729 18.6631C48.1729 15.6484 49.5967 13.7588 51.873 13.7588C53.543 13.7588 54.8174 14.7607 55.1865 16.334H57.1465C56.8301 13.7939 54.668 12.0098 51.873 12.0098C48.3486 12.0098 46.1602 14.5586 46.1602 18.6631C46.1602 22.7588 48.3574 25.3076 51.8818 25.3076ZM63.4023 25.1846C66.1972 25.1846 67.9111 23.3125 67.9111 20.2275C67.9111 17.1426 66.1884 15.2705 63.4023 15.2705C60.6074 15.2705 58.8847 17.1514 58.8847 20.2275C58.8847 23.3125 60.5986 25.1846 63.4023 25.1846ZM63.4023 23.5762C61.7587 23.5762 60.8359 22.3545 60.8359 20.2275C60.8359 18.1006 61.7587 16.8701 63.4023 16.8701C65.037 16.8701 65.9687 18.1006 65.9687 20.2275C65.9687 22.3457 65.037 23.5762 63.4023 23.5762ZM73.2264 21.5811L75.3182 25.0176H77.4891L74.2987 20.1924L77.454 15.4727H75.3446L73.3055 18.8828H73.1561L71.0995 15.4727H68.8934L72.0926 20.2627L68.9198 25.0176H70.994L73.0858 21.5811H73.2264ZM84.2723 15.2881C82.9715 15.2881 81.8465 15.9473 81.2664 17.0371H81.1258V15.4551H79.3065V28.1816H81.1961V23.5586H81.3455C81.8465 24.5693 82.9275 25.1582 84.2899 25.1582C86.7068 25.1582 88.2449 23.2422 88.2449 20.2275C88.2449 17.1953 86.7068 15.2881 84.2723 15.2881ZM83.7361 23.541C82.1541 23.541 81.1609 22.2666 81.1609 20.2275C81.1609 18.1797 82.1541 16.9053 83.7449 16.9053C85.3445 16.9053 86.3025 18.1533 86.3025 20.2275C86.3025 22.3018 85.3445 23.541 83.7361 23.541ZM93.0066 25.1582C94.2634 25.1582 95.3093 24.6133 95.8806 23.6465H96.03V25H97.8494V18.4697C97.8494 16.4658 96.4958 15.2705 94.0964 15.2705C91.9255 15.2705 90.3787 16.3164 90.1853 17.9248H92.0134C92.2244 17.2305 92.9538 16.835 94.0085 16.835C95.3005 16.835 95.9685 17.4238 95.9685 18.4697V19.3047L93.3757 19.4629C91.0994 19.6035 89.8162 20.5967 89.8162 22.3105C89.8162 24.0508 91.1609 25.1582 93.0066 25.1582ZM93.49 23.6377C92.4617 23.6377 91.7146 23.1191 91.7146 22.2314C91.7146 21.3613 92.3122 20.8955 93.6306 20.8076L95.9685 20.6494V21.4756C95.9685 22.7061 94.9138 23.6377 93.49 23.6377ZM106.619 25H108.508V15.4551H106.619V19.3047H102.259V15.4551H100.37V25H102.259V20.8164H106.619V25ZM112.945 25L117.313 18.2764H117.463V25H119.335V15.4551H117.463L113.094 22.1523H112.945V15.4551H111.073V25H112.945ZM129.053 15.4551H121.134V16.9668H124.149V25H126.039V16.9668H129.053V15.4551ZM130.844 25H134.624C136.838 25 138.253 23.7256 138.253 21.7041C138.253 19.6914 136.838 18.417 134.624 18.417H132.734V15.4551H130.844V25ZM134.483 19.9199C135.625 19.9199 136.373 20.623 136.373 21.7041C136.373 22.7764 135.634 23.4883 134.483 23.4883H132.734V19.9199H134.483Z" fill="#002DFF"/>
<path d="M21.3333 8H23.6667V29H21.3333V8Z" fill="#002DFF"/>
<path d="M33 17.3333V19.6667L12 19.6667L12 17.3333H33Z" fill="#002DFF"/>
</svg>
